<?xml version="1.0" encoding="utf-8"?>
<!-- Generator: Adobe Illustrator 16.0.0, SVG Export Plug-In . SVG Version: 6.00 Build 0)  -->
<!DOCTYPE svg PUBLIC "-//W3C//DTD SVG 1.1//EN" "http://www.w3.org/Graphics/SVG/1.1/DTD/svg11.dtd">
<svg version="1.1" id="Layer_1" xmlns="http://www.w3.org/2000/svg" xmlns:xlink="http://www.w3.org/1999/xlink" x="0px" y="0px"
	 width="700px" height="700px" viewBox="0 0 700 700" enable-background="new 0 0 700 700" xml:space="preserve">
<symbol  id="a" viewBox="-17.117 -22.57 34.234 45.14">
	<path d="M6.851-5.492V-22.57h10.266v44.313H6.851v-4.609c-1.398,1.875-2.945,3.25-4.64,4.125c-1.688,0.875-3.641,1.313-5.86,1.313
		c-3.93,0-7.156-1.563-9.688-4.688c-2.523-3.125-3.781-7.145-3.781-12.063c0-4.914,1.258-8.938,3.781-12.062
		c2.531-3.125,5.758-4.688,9.688-4.688c2.195,0,4.145,0.445,5.844,1.328C3.902-8.714,5.453-7.343,6.851-5.492L6.851-5.492z
		 M0.132,15.164c2.188,0,3.852-0.797,5-2.391c1.145-1.594,1.719-3.91,1.719-6.953c0-3.039-0.574-5.359-1.719-6.953
		c-1.148-1.594-2.813-2.391-5-2.391c-2.168,0-3.824,0.797-4.969,2.391C-5.985,0.461-6.555,2.781-6.555,5.82
		c0,3.043,0.57,5.359,1.719,6.953C-3.692,14.367-2.036,15.164,0.132,15.164z"/>
</symbol>
<symbol  id="b" viewBox="-18.086 -22.062 36.172 44.125">
	<path d="M18.086,18.906c-2.012,1.043-4.109,1.828-6.297,2.359s-4.465,0.797-6.828,0.797c-7.086,0-12.699-1.977-16.844-5.938
		c-4.137-3.957-6.203-9.328-6.203-16.109c0-6.789,2.066-12.164,6.203-16.125c4.145-3.969,9.758-5.953,16.844-5.953
		c2.363,0,4.641,0.266,6.828,0.797s4.285,1.324,6.297,2.375v8.797c-2.031-1.383-4.039-2.398-6.016-3.047
		c-1.969-0.645-4.047-0.969-6.234-0.969c-3.906,0-6.984,1.258-9.234,3.766c-2.242,2.5-3.359,5.953-3.359,10.359
		c0,4.387,1.117,7.836,3.359,10.344c2.25,2.5,5.328,3.75,9.234,3.75c2.188,0,4.266-0.32,6.234-0.969
		c1.977-0.645,3.984-1.66,6.016-3.047V18.906z"/>
</symbol>
<symbol  id="c" viewBox="-23.648 -21.258 47.297 42.516">
	<path d="M-23.648-21.258h13.953l9.688,22.75l9.734-22.75h13.922v42.516H13.289V-9.836L3.492,13.086h-6.953l-9.797-22.922v31.094
		h-10.391V-21.258z"/>
</symbol>
<symbol  id="d" viewBox="-17.11 -22.57 34.219 45.14">
	<path d="M-0.141,15.164c2.176,0,3.836-0.797,4.984-2.391C6,11.18,6.578,8.863,6.578,5.82c0-3.039-0.578-5.359-1.734-6.953
		C3.695-2.727,2.035-3.523-0.141-3.523c-2.188,0-3.867,0.805-5.031,2.406c-1.168,1.605-1.75,3.918-1.75,6.938
		c0,3.023,0.582,5.336,1.75,6.938C-4.008,14.363-2.328,15.164-0.141,15.164z M-6.922-5.492c1.406-1.852,2.961-3.223,4.672-4.109
		c1.707-0.883,3.672-1.328,5.891-1.328c3.938,0,7.164,1.563,9.688,4.688c2.52,3.125,3.781,7.148,3.781,12.063
		c0,4.918-1.262,8.938-3.781,12.063c-2.523,3.125-5.75,4.688-9.688,4.688c-2.219,0-4.184-0.445-5.891-1.328
		c-1.711-0.883-3.266-2.254-4.672-4.109v4.609H-17.11V-22.57h10.188V-5.492z"/>
</symbol>
<symbol  id="e" viewBox="-12.891 -20.477 25.781 40.953">
	<path d="M2.375-20.477v9.063h10.516v7.281H2.375V9.398c0,1.48,0.289,2.48,0.875,3c0.594,0.523,1.765,0.781,3.515,0.781H12v7.297
		H3.265c-4.031,0-6.887-0.836-8.563-2.516c-1.68-1.688-2.515-4.539-2.515-8.563V-4.133h-5.078v-7.281h5.078v-9.063H2.375z"/>
</symbol>
<path fill="#038C7F" d="M163.33,443.33h349.999c57.996,0,105-47.004,105-105c0-54.203-41.077-98.828-93.797-104.4
	c-5.637-65.66-60.772-117.26-127.87-117.26c-50.948,0-95.016,29.762-115.72,72.832c-7.793-1.852-15.926-2.832-24.276-2.832
	c-54.263,0-98.97,41.254-104.44,94.078c-39.852,5.414-70.559,39.586-70.559,80.922c0,45.102,36.562,81.664,81.664,81.664
	L163.33,443.33z M163.33,419.998h349.999c45.105,0,81.669-36.563,81.669-81.668c0-45.102-36.563-81.664-81.668-81.664
	c-6.438,0-11.664-5.227-11.664-11.668c0-57.949-47.056-105-105-105c-44.824,0-83.137,28.152-98.188,67.727
	c-2.254,5.914-8.797,8.957-14.77,6.859c-8.461-2.977-17.57-4.586-27.043-4.586c-45.07,0-81.668,36.598-81.668,81.668
	c0,6.438-5.227,11.664-11.668,11.664c-32.211,0-58.332,26.121-58.332,58.335C104.997,393.878,131.118,419.998,163.33,419.998
	L163.33,419.998z"/>
<use xlink:href="#e"  width="25.781" height="40.953" x="-12.891" y="-20.477" transform="matrix(17.0927 0 0 -17.0927 545.5588 -708.1348)" overflow="visible"/>
<use xlink:href="#a"  width="34.234" height="45.14" x="-17.117" y="-22.57" transform="matrix(15.5073 0 0 -15.5073 613.0081 -708.1387)" overflow="visible"/>
<use xlink:href="#d"  width="34.219" height="45.14" x="-17.11" y="-22.57" transform="matrix(15.5074 0 0 -15.5074 675.0745 -708.1348)" overflow="visible"/>
<use xlink:href="#c"  width="47.297" height="42.516" x="-23.648" y="-21.258" transform="matrix(14.8001 0 0 -14.8001 775.1604 -708.1309)" overflow="visible"/>
<use xlink:href="#a"  width="34.234" height="45.14" x="-17.117" y="-22.57" transform="matrix(15.5073 0 0 -15.5073 872.5745 -708.1387)" overflow="visible"/>
<use xlink:href="#b"  width="36.172" height="44.125" x="-18.086" y="-22.062" transform="matrix(15.8642 0 0 -15.8642 974.0042 -708.1387)" overflow="visible"/>
</svg>
