<?xml version="1.0" encoding="utf-8"?>
<!-- Generator: Adobe Illustrator 16.0.0, SVG Export Plug-In . SVG Version: 6.00 Build 0)  -->
<!DOCTYPE svg PUBLIC "-//W3C//DTD SVG 1.1//EN" "http://www.w3.org/Graphics/SVG/1.1/DTD/svg11.dtd">
<svg version="1.1" id="Layer_1" xmlns="http://www.w3.org/2000/svg" xmlns:xlink="http://www.w3.org/1999/xlink" x="0px" y="0px"
	 width="700px" height="700px" viewBox="0 0 700 700" enable-background="new 0 0 700 700" xml:space="preserve">
<symbol  id="a" viewBox="-0.141 -0.203 0.281 0.406">
	<path d="M0.141-0.078c0-0.008-0.008-0.016-0.016-0.016C0.113-0.102,0.102-0.109,0.094-0.109C0.051-0.109,0.02-0.094,0-0.063
		c-0.012,0.023-0.016,0.047-0.016,0.078v0.188h-0.125v-0.391h0.125v0.063c0.02-0.031,0.035-0.051,0.047-0.063
		c0.02-0.008,0.047-0.016,0.078-0.016h0.016h0.016V-0.078z"/>
</symbol>
<symbol  id="b" viewBox="-0.156 -0.258 0.313 0.516">
	<path d="M0.031-0.258v0.125h0.125v0.078H0.031v0.172v0.047h0.047h0.063v0.094H0.047c-0.055,0-0.094-0.008-0.125-0.031
		c-0.023-0.02-0.031-0.055-0.031-0.109v-0.172h-0.047v-0.078h0.047v-0.125H0.031z"/>
</symbol>
<symbol  id="c" viewBox="-0.211 -0.211 0.422 0.422">
	<path d="M0.211-0.008v0.047h-0.297c0.008,0.031,0.02,0.055,0.031,0.063c0.02,0.012,0.047,0.016,0.078,0.016
		s0.055-0.004,0.078-0.016c0.031-0.008,0.063-0.02,0.094-0.031V0.18c-0.031,0-0.063,0.008-0.094,0.016
		C0.078,0.203,0.055,0.211,0.023,0.211c-0.086,0-0.148-0.02-0.188-0.063c-0.031-0.039-0.047-0.086-0.047-0.141
		c0-0.07,0.016-0.125,0.047-0.156c0.039-0.039,0.098-0.063,0.172-0.063c0.063,0,0.109,0.023,0.141,0.063
		C0.188-0.117,0.211-0.07,0.211-0.008z M0.086-0.039c0-0.031-0.012-0.051-0.031-0.063C0.043-0.109,0.027-0.117,0.008-0.117
		c-0.023,0-0.043,0.008-0.063,0.016C-0.066-0.09-0.078-0.07-0.086-0.039H0.086z"/>
</symbol>
<symbol  id="d" viewBox="-0.219 -0.211 0.438 0.422">
	<path d="M0-0.117c-0.031,0-0.059,0.012-0.078,0.031C-0.09-0.074-0.094-0.043-0.094,0.008c0,0.031,0.004,0.059,0.016,0.078
		C-0.059,0.109-0.031,0.117,0,0.117s0.051-0.008,0.063-0.031c0.02-0.02,0.031-0.047,0.031-0.078c0-0.051-0.012-0.082-0.031-0.094
		C0.051-0.105,0.031-0.117,0-0.117z M0-0.211c0.063,0,0.113,0.023,0.156,0.063c0.039,0.031,0.063,0.086,0.063,0.156
		c0,0.055-0.023,0.102-0.063,0.141C0.113,0.191,0.063,0.211,0,0.211c-0.074,0-0.133-0.02-0.172-0.063
		c-0.031-0.039-0.047-0.086-0.047-0.141c0-0.07,0.016-0.125,0.047-0.156C-0.133-0.188-0.074-0.211,0-0.211z"/>
</symbol>
<symbol  id="e" viewBox="-0.195 -0.211 0.391 0.422">
	<path d="M0.008,0.008c-0.023,0-0.043,0.012-0.063,0.031C-0.066,0.051-0.07,0.063-0.07,0.07c0,0.012,0.004,0.023,0.016,0.031
		c0.008,0.012,0.023,0.016,0.047,0.016c0.031,0,0.051-0.004,0.063-0.016c0.02-0.02,0.031-0.039,0.031-0.063V0.008H0.008z
		 M0.195-0.023v0.219H0.086V0.133C0.063,0.164,0.043,0.188,0.023,0.195C0,0.203-0.023,0.211-0.055,0.211
		c-0.043,0-0.078-0.012-0.109-0.031C-0.188,0.148-0.195,0.113-0.195,0.07c0-0.039,0.016-0.07,0.047-0.094
		c0.031-0.02,0.078-0.031,0.141-0.031h0.094V-0.07c0-0.02-0.012-0.031-0.031-0.031C0.043-0.109,0.016-0.117-0.023-0.117h-0.078
		c-0.023,0-0.043,0.008-0.063,0.016v-0.094h0.078c0.031-0.008,0.055-0.016,0.078-0.016c0.082,0,0.133,0.016,0.156,0.047
		C0.18-0.133,0.195-0.086,0.195-0.023L0.195-0.023z"/>
</symbol>
<symbol  id="f" viewBox="-0.203 -0.273 0.406 0.547">
	<path d="M0.203,0.039v0.234H0.063V0.086V0.023c0-0.008-0.008-0.02-0.016-0.031c0-0.008-0.008-0.016-0.016-0.016
		C0.031-0.031,0.02-0.039,0-0.039c-0.023,0-0.043,0.012-0.063,0.031c-0.012,0.023-0.016,0.055-0.016,0.094v0.188h-0.125v-0.547
		h0.125v0.203c0.02-0.02,0.039-0.035,0.063-0.047c0.02-0.008,0.039-0.016,0.063-0.016c0.051,0,0.086,0.016,0.109,0.047
		C0.188-0.055,0.203-0.012,0.203,0.039z"/>
</symbol>
<symbol  id="g" viewBox="-0.258 -0.281 0.516 0.563">
	<path d="M0.258,0.234C0.215,0.246,0.18,0.258,0.148,0.266S0.074,0.281,0.023,0.281c-0.086,0-0.152-0.023-0.203-0.078
		C-0.234,0.152-0.258,0.086-0.258,0c0-0.082,0.023-0.148,0.078-0.203c0.051-0.051,0.125-0.078,0.219-0.078
		c0.039,0,0.07,0.008,0.094,0.016c0.031,0.012,0.063,0.023,0.094,0.031v0.109c-0.031-0.02-0.063-0.031-0.094-0.031
		C0.109-0.164,0.086-0.172,0.055-0.172C0-0.172-0.039-0.156-0.07-0.125C-0.094-0.094-0.102-0.051-0.102,0
		c0,0.055,0.008,0.094,0.031,0.125C-0.039,0.156,0,0.172,0.055,0.172h0.031c0.008,0,0.02-0.004,0.031-0.016V0.063H0.039v-0.094
		h0.219V0.234z"/>
</symbol>
<symbol  id="h" viewBox="-0.227 -0.273 0.453 0.547">
	<path d="M-0.227-0.273h0.125l0.094,0.266l0.094-0.266h0.141L0.055,0.148C0.031,0.199,0.012,0.23-0.008,0.242
		c-0.023,0.02-0.055,0.031-0.094,0.031H-0.18V0.18h0.047h0.047c0.008,0,0.02-0.016,0.031-0.047L-0.227-0.273z"/>
</symbol>
<symbol  id="i" viewBox="-0.211 -0.281 0.422 0.563">
	<path d="M-0.008,0.188c0.031,0,0.051-0.008,0.063-0.031C0.063,0.137,0.07,0.109,0.07,0.078c0-0.039-0.008-0.07-0.016-0.094
		c-0.012-0.02-0.031-0.031-0.063-0.031S-0.063-0.035-0.07-0.016c-0.012,0.023-0.016,0.055-0.016,0.094
		c0,0.031,0.004,0.059,0.016,0.078C-0.063,0.18-0.039,0.188-0.008,0.188z M-0.086-0.078c0.02-0.02,0.039-0.035,0.063-0.047
		c0.02-0.008,0.039-0.016,0.063-0.016c0.051,0,0.094,0.023,0.125,0.063c0.031,0.031,0.047,0.086,0.047,0.156
		c0,0.055-0.016,0.102-0.047,0.141C0.133,0.262,0.09,0.281,0.039,0.281c-0.023,0-0.043-0.008-0.063-0.016
		c-0.023-0.008-0.043-0.031-0.063-0.063v0.063h-0.125v-0.547h0.125V-0.078z"/>
</symbol>
<symbol  id="j" viewBox="-0.211 -0.281 0.422 0.563">
	<path d="M0.086-0.078v-0.203h0.125v0.547H0.086V0.203C0.074,0.234,0.055,0.258,0.023,0.266C0,0.273-0.02,0.281-0.039,0.281
		c-0.055,0-0.094-0.02-0.125-0.063C-0.195,0.18-0.211,0.133-0.211,0.078c0-0.07,0.016-0.125,0.047-0.156
		c0.031-0.039,0.07-0.063,0.125-0.063c0.02,0,0.039,0.008,0.063,0.016C0.055-0.113,0.074-0.098,0.086-0.078z M0.008,0.188
		c0.02,0,0.035-0.008,0.047-0.031c0.02-0.02,0.031-0.047,0.031-0.078c0-0.039-0.012-0.07-0.031-0.094
		c-0.012-0.02-0.027-0.031-0.047-0.031c-0.031,0-0.059,0.012-0.078,0.031c-0.012,0.023-0.016,0.055-0.016,0.094
		c0,0.031,0.004,0.059,0.016,0.078C-0.051,0.18-0.023,0.188,0.008,0.188z"/>
</symbol>
<symbol  id="k" viewBox="-0.18 -0.211 0.359 0.422">
	<path d="M0.18-0.195v0.109C0.148-0.094,0.125-0.102,0.117-0.102C0.105-0.109,0.086-0.117,0.055-0.117s-0.059,0.012-0.078,0.031
		c-0.023,0.023-0.031,0.055-0.031,0.094c0,0.031,0.008,0.059,0.031,0.078c0.02,0.023,0.047,0.031,0.078,0.031
		s0.051-0.004,0.063-0.016c0.02-0.008,0.039-0.016,0.063-0.016V0.18C0.148,0.191,0.121,0.195,0.102,0.195
		C0.09,0.203,0.074,0.211,0.055,0.211c-0.086,0-0.148-0.02-0.188-0.063C-0.164,0.109-0.18,0.063-0.18,0.008
		c0-0.07,0.016-0.125,0.047-0.156c0.039-0.039,0.102-0.063,0.188-0.063c0.02,0,0.035,0.008,0.047,0.016H0.18z"/>
</symbol>
<symbol  id="l" viewBox="-0.102 -0.352 0.203 0.703">
	<path d="M-0.023-0.195h0.125V0.18c0,0.051-0.016,0.094-0.047,0.125C0.031,0.336-0.004,0.352-0.055,0.352h-0.047V0.258h0.016
		c0.02,0,0.035-0.008,0.047-0.016c0.008,0,0.016-0.023,0.016-0.063V-0.195z M-0.023-0.352h0.125v0.094h-0.125V-0.352z"/>
</symbol>
<symbol  id="m" viewBox="-0.219 -0.266 0.438 0.531">
	<path d="M-0.219-0.266h0.234c0.063,0,0.109,0.016,0.141,0.047c0.039,0.031,0.063,0.078,0.063,0.141
		c0,0.055-0.023,0.094-0.063,0.125C0.125,0.07,0.078,0.078,0.016,0.078h-0.094v0.188h-0.141V-0.266z M-0.078-0.156v0.141H0
		c0.02,0,0.035-0.004,0.047-0.016c0.02-0.008,0.031-0.023,0.031-0.047c0-0.031-0.012-0.051-0.031-0.063
		C0.035-0.148,0.02-0.156,0-0.156H-0.078z"/>
</symbol>
<symbol  id="n" viewBox="-0.203 -0.203 0.406 0.406">
	<path d="M0.203-0.031v0.234H0.063V0.016v-0.063c0-0.008-0.008-0.02-0.016-0.031c0-0.008-0.008-0.016-0.016-0.016
		C0.031-0.102,0.02-0.109,0-0.109c-0.023,0-0.043,0.012-0.063,0.031c-0.012,0.023-0.016,0.055-0.016,0.094v0.188h-0.125v-0.391
		h0.125v0.047c0.02-0.02,0.039-0.035,0.063-0.047c0.02-0.008,0.039-0.016,0.063-0.016c0.051,0,0.086,0.016,0.109,0.047
		C0.188-0.125,0.203-0.082,0.203-0.031z"/>
</symbol>
<symbol  id="o" viewBox="-0.195 -0.203 0.391 0.406">
	<path d="M-0.195,0.031v-0.234h0.125v0.031v0.094v0.047v0.078v0.031c0.008,0,0.016,0.008,0.016,0.016h0.047
		c0.02,0,0.035-0.004,0.047-0.016c0.02-0.02,0.031-0.051,0.031-0.094v-0.188h0.125v0.391H0.07V0.125
		C0.047,0.156,0.027,0.18,0.008,0.188C-0.016,0.195-0.039,0.203-0.07,0.203c-0.043,0-0.074-0.016-0.094-0.047
		C-0.188,0.125-0.195,0.086-0.195,0.031z"/>
</symbol>
<symbol  id="p" viewBox="-0.242 -0.266 0.484 0.531">
	<path d="M-0.242-0.266h0.156l0.188,0.359v-0.359h0.141v0.531H0.086l-0.203-0.359v0.359h-0.125V-0.266z"/>
</symbol>
<symbol  id="q" viewBox="-0.32 -0.203 0.641 0.406">
	<path d="M0.039-0.125c0.02-0.02,0.039-0.035,0.063-0.047c0.02-0.02,0.039-0.031,0.063-0.031c0.051,0,0.086,0.016,0.109,0.047
		C0.305-0.125,0.32-0.082,0.32-0.031v0.234H0.18V0v-0.016c0-0.031-0.008-0.051-0.016-0.063c0-0.02-0.012-0.031-0.031-0.031
		c-0.023,0-0.043,0.012-0.063,0.031C0.059-0.055,0.055-0.023,0.055,0.016v0.188H-0.07V0c0-0.039-0.008-0.066-0.016-0.078
		c0-0.02-0.012-0.031-0.031-0.031c-0.031,0-0.055,0.012-0.063,0.031c-0.012,0.023-0.016,0.055-0.016,0.094v0.188H-0.32v-0.391h0.125
		v0.047l0.047-0.047c0.02-0.008,0.047-0.016,0.078-0.016c0.02,0,0.039,0.012,0.063,0.031C0.012-0.16,0.027-0.145,0.039-0.125z"/>
</symbol>
<symbol  id="r" viewBox="-0.148 -0.273 0.297 0.547">
	<path d="M0.148-0.273v0.078H0.086c-0.023,0-0.039,0.008-0.047,0.016v0.031v0.031h0.109v0.078H0.039v0.313h-0.125v-0.313h-0.063
		v-0.078h0.063v-0.031c0-0.039,0.008-0.07,0.031-0.094C-0.035-0.262,0-0.273,0.055-0.273H0.148z"/>
</symbol>
<symbol  id="s" viewBox="-0.273 -0.266 0.547 0.531">
	<path d="M0.117,0.156h-0.219l-0.031,0.109h-0.141l0.203-0.531h0.156l0.188,0.531H0.148L0.117,0.156z M-0.07,0.078H0.07L0.008-0.141
		L-0.07,0.078z"/>
</symbol>
<symbol  id="t" viewBox="-0.18 -0.031 0.359 0.063">
	<path d="M0.18-0.031v0.063H-0.18v-0.063H0.18z"/>
</symbol>
<symbol  id="u" viewBox="-0.18 -0.211 0.359 0.422">
	<path d="M0.164-0.195v0.109C0.133-0.105,0.102-0.117,0.07-0.117H0.008h-0.063c-0.012,0-0.016,0.012-0.016,0.031
		c0,0.012,0.004,0.023,0.016,0.031h0.063h0.016c0.063,0.012,0.102,0.027,0.125,0.047C0.168,0.004,0.18,0.035,0.18,0.086
		c0,0.031-0.016,0.063-0.047,0.094C0.109,0.199,0.07,0.211,0.008,0.211c-0.031,0-0.063-0.008-0.094-0.016
		c-0.023,0-0.047-0.004-0.078-0.016V0.086c0.02,0.012,0.039,0.023,0.063,0.031h0.094h0.047c0.008-0.008,0.016-0.02,0.016-0.031
		c0-0.02-0.008-0.031-0.016-0.031c0,0-0.012-0.004-0.031-0.016h-0.031c-0.055-0.008-0.094-0.02-0.125-0.031
		C-0.172-0.012-0.18-0.043-0.18-0.086c0-0.039,0.016-0.07,0.047-0.094c0.031-0.02,0.078-0.031,0.141-0.031
		c0.02,0,0.039,0.008,0.063,0.016H0.164z"/>
</symbol>
<symbol  id="v" viewBox="-0.219 -0.195 0.438 0.391">
	<path d="M-0.078-0.008l-0.141-0.188h0.125L0-0.086l0.078-0.109h0.141L0.078-0.008l0.141,0.203H0.078L0,0.07l-0.094,0.125h-0.125
		L-0.078-0.008z"/>
</symbol>
<symbol  id="w" viewBox="-0.063 -0.273 0.125 0.547">
	<path d="M-0.063-0.117h0.125v0.391h-0.125V-0.117z M-0.063-0.273h0.125v0.094h-0.125V-0.273z"/>
</symbol>
<symbol  id="x" viewBox="-0.211 -0.273 0.422 0.547">
	<path d="M-0.086,0.07v0.203h-0.125v-0.531h0.125v0.047c0.02-0.02,0.039-0.035,0.063-0.047c0.02-0.008,0.039-0.016,0.063-0.016
		c0.051,0,0.094,0.023,0.125,0.063C0.195-0.18,0.211-0.125,0.211-0.055c0,0.055-0.016,0.102-0.047,0.141
		C0.133,0.129,0.09,0.148,0.039,0.148c-0.023,0-0.043-0.008-0.063-0.016C-0.047,0.125-0.066,0.102-0.086,0.07z M-0.008-0.18
		c-0.031,0-0.055,0.012-0.063,0.031c-0.012,0.023-0.016,0.055-0.016,0.094c0,0.031,0.004,0.059,0.016,0.078
		c0.008,0.023,0.031,0.031,0.063,0.031s0.051-0.008,0.063-0.031C0.063,0.004,0.07-0.023,0.07-0.055c0-0.039-0.008-0.07-0.016-0.094
		C0.043-0.168,0.023-0.18-0.008-0.18z"/>
</symbol>
<path fill="#038C7F" d="M431.46,301.54H208.5c-45.125,0-81.652-36.508-81.652-81.652c0-43.738,34.281-79.293,77.297-81.535
	c2.98-57.07,62.117-92.973,113.84-70.648c19,8.199,34.066,23.223,42.353,41.93c26.141-5.652,52.862,5.93,66.629,28.73
	c52.457-2.864,94.129,43.812,84.875,95.949c-6.84,38.34-40.341,67.227-80.379,67.227L431.46,301.54z M208.36,155.75
	c-35.309,0.074-64.012,28.816-64.012,64.141c0,35.367,28.773,64.141,64.141,64.141h222.971c31.129,0,57.69-22.211,63.145-52.789
	c7.621-42.898-28.602-80.492-71.473-74.957c-3.758,0.477-7.402-1.504-9.023-4.918c-9.773-20.562-33.98-31-56.043-22.875
	c-4.656,1.719-9.816-0.797-11.353-5.523c-5.684-17.566-18.68-31.852-35.672-39.184c-41.957-18.117-89.41,12.652-89.512,58.793
	l0.129,4.281c0.16,5.047-3.977,9.18-9.023,9.023L208.36,155.75z"/>
<path fill="#038C7F" d="M485.6,257.16c-0.188-4.828,3.586-8.891,8.414-9.082c34.57-1.316,61.652-29.48,61.652-64.098
	c0-38.434-33.789-68.594-72.484-63.605c-3.758,0.477-7.387-1.504-9.023-4.918c-9.773-20.562-33.98-31-56.043-22.875
	c-4.656,1.719-9.816-0.797-11.352-5.523c-8.586-26.559-33.121-44.402-61.056-44.402c-22.629,0-43.823,12.133-55.319,31.652
	c-2.457,4.164-7.809,5.551-11.974,3.109c-4.164-2.457-5.551-7.809-3.109-11.973c24.625-41.832,80.047-53.051,118.9-24.32
	c11.522,8.531,20.461,19.691,26.172,32.605c25.94-5.609,52.762,5.77,66.629,28.73c46.891-2.574,86.133,34.703,86.133,81.52
	c0,21.254-8.125,41.383-22.875,56.68c-14.719,15.254-34.457,24.102-55.594,24.914C489.882,265.762,485.773,262.016,485.6,257.16
	L485.6,257.16z"/>
<path fill="#038C7F" d="M334.02,421.09c-18.983,0-34.44-15.44-34.44-34.44c0-4.859,1.461-13.724,14.125-34.484
	c6.535-10.73,12.983-19.547,13.258-19.91c3.484-4.758,10.613-4.785,14.113,0c0.273,0.375,6.723,9.18,13.258,19.91
	c12.651,20.762,14.125,29.625,14.125,34.484C368.447,405.637,353.005,421.09,334.02,421.09z M334.02,352.832
	c-1.707,2.59-3.57,5.496-5.438,8.547c-10.944,17.988-11.508,24.219-11.508,25.273c0,9.34,7.59,16.93,16.93,16.93
	s16.931-7.59,16.931-16.93c0-1.07-0.551-7.301-11.509-25.273C337.59,358.324,335.727,355.402,334.02,352.832L334.02,352.832z"/>
<path fill="#038C7F" d="M453.05,421.09c-18.984,0-34.441-15.44-34.441-34.44c0-4.859,1.461-13.724,14.125-34.484
	c6.535-10.73,12.984-19.547,13.258-19.91c3.484-4.758,10.613-4.785,14.113,0c0.273,0.375,6.723,9.18,13.258,19.91
	c12.652,20.762,14.125,29.625,14.125,34.484C487.491,405.637,472.034,421.09,453.05,421.09z M453.05,352.832
	c-1.707,2.59-3.57,5.496-5.438,8.547c-10.945,17.988-11.509,24.219-11.509,25.273c0,9.34,7.59,16.93,16.931,16.93
	c9.34,0,16.93-7.59,16.93-16.93c0-1.07-0.551-7.301-11.508-25.273C456.62,358.324,454.757,355.402,453.05,352.832L453.05,352.832z"
	/>
<path fill="#038C7F" d="M216.24,421.09c-18.984,0-34.441-15.44-34.441-34.44c0-4.859,1.461-13.724,14.125-34.484
	c6.535-10.73,12.984-19.547,13.258-19.91c3.484-4.758,10.613-4.785,14.113,0c0.273,0.375,6.723,9.18,13.258,19.91
	c12.652,20.762,14.125,29.625,14.125,34.484C250.67,405.637,235.225,421.09,216.24,421.09z M216.24,352.832
	c-1.707,2.59-3.57,5.496-5.438,8.547c-10.945,17.988-11.509,24.219-11.509,25.273c0,9.34,7.59,16.93,16.931,16.93
	c9.34,0,16.93-7.59,16.93-16.93c0-1.07-0.551-7.301-11.508-25.273C219.811,358.324,217.948,355.402,216.24,352.832L216.24,352.832z"
	/>
<path fill="#038C7F" d="M394.97,534.84c-18.984,0-34.441-15.44-34.441-34.44c0-4.859,1.461-13.724,14.125-34.484
	c6.535-10.73,12.984-19.547,13.259-19.91c3.484-4.758,10.612-4.785,14.112,0c0.273,0.375,6.723,9.18,13.258,19.91
	c12.652,20.762,14.125,29.625,14.125,34.484C429.411,519.399,413.954,534.84,394.97,534.84z M394.97,466.578
	c-1.707,2.59-3.57,5.496-5.438,8.547c-10.945,17.988-11.508,24.219-11.508,25.273c0,9.339,7.59,16.93,16.93,16.93
	s16.93-7.59,16.93-16.93c0-1.07-0.551-7.302-11.508-25.273C398.54,472.074,396.677,469.168,394.97,466.578L394.97,466.578z"/>
<path fill="#038C7F" d="M274.32,534.84c-18.983,0-34.44-15.44-34.44-34.44c0-4.859,1.461-13.724,14.125-34.484
	c6.535-10.73,12.983-19.547,13.258-19.91c3.484-4.758,10.613-4.785,14.113,0c0.273,0.375,6.723,9.18,13.258,19.91
	c12.652,20.762,14.125,29.625,14.125,34.484C308.75,519.399,293.305,534.84,274.32,534.84z M274.32,466.578
	c-1.707,2.59-3.57,5.496-5.438,8.547c-10.944,17.988-11.508,24.219-11.508,25.273c0,9.339,7.59,16.93,16.931,16.93
	c9.34,0,16.93-7.59,16.93-16.93c0-1.07-0.551-7.302-11.508-25.273C277.895,472.074,276.028,469.168,274.32,466.578L274.32,466.578z"
	/>
<use xlink:href="#a"  width="0.281" height="0.406" x="-0.141" y="-0.203" transform="matrix(1723.0769 0 0 -1723.0769 395.5862 -535.3027)" overflow="visible"/>
<use xlink:href="#c"  width="0.422" height="0.422" x="-0.211" y="-0.211" transform="matrix(1659.2593 0 0 -1659.2593 395.9417 -535.3027)" overflow="visible"/>
<use xlink:href="#e"  width="0.391" height="0.422" x="-0.195" y="-0.211" transform="matrix(1659.2593 0 0 -1659.2593 396.4338 -535.3027)" overflow="visible"/>
<use xlink:href="#b"  width="0.313" height="0.516" x="-0.156" y="-0.258" transform="matrix(1357.5758 0 0 -1357.5758 396.9221 -535.3027)" overflow="visible"/>
<use xlink:href="#c"  width="0.422" height="0.422" x="-0.211" y="-0.211" transform="matrix(1659.2593 0 0 -1659.2593 397.2659 -535.3027)" overflow="visible"/>
<use xlink:href="#j"  width="0.422" height="0.563" x="-0.211" y="-0.281" transform="matrix(1244.4445 0 0 -1244.4445 397.7581 -535.3027)" overflow="visible"/>
<use xlink:href="#i"  width="0.422" height="0.563" x="-0.211" y="-0.281" transform="matrix(1244.4445 0 0 -1244.4445 398.5237 -535.3027)" overflow="visible"/>
<use xlink:href="#h"  width="0.453" height="0.547" x="-0.227" y="-0.273" transform="matrix(1280 0 0 -1280 399.0432 -535.3027)" overflow="visible"/>
<use xlink:href="#g"  width="0.516" height="0.563" x="-0.258" y="-0.281" transform="matrix(1244.4445 0 0 -1244.4445 399.7659 -535.3027)" overflow="visible"/>
<use xlink:href="#a"  width="0.281" height="0.406" x="-0.141" y="-0.203" transform="matrix(1723.0769 0 0 -1723.0769 400.3596 -535.3027)" overflow="visible"/>
<use xlink:href="#e"  width="0.391" height="0.422" x="-0.195" y="-0.211" transform="matrix(1659.2593 0 0 -1659.2593 400.7151 -535.3027)" overflow="visible"/>
<use xlink:href="#x"  width="0.422" height="0.547" x="-0.211" y="-0.273" transform="matrix(1280 0 0 -1280 401.2034 -535.3027)" overflow="visible"/>
<use xlink:href="#f"  width="0.406" height="0.547" x="-0.203" y="-0.273" transform="matrix(1280 0 0 -1280 401.7229 -535.3027)" overflow="visible"/>
<use xlink:href="#w"  width="0.125" height="0.547" x="-0.063" y="-0.273" transform="matrix(1280 0 0 -1280 402.2346 -535.3027)" overflow="visible"/>
<use xlink:href="#v"  width="0.438" height="0.391" x="-0.219" y="-0.195" transform="matrix(1600 0 0 -1600 402.4846 -535.3027)" overflow="visible"/>
<use xlink:href="#u"  width="0.359" height="0.422" x="-0.18" y="-0.211" transform="matrix(1659.2593 0 0 -1659.2593 402.9495 -535.3027)" overflow="visible"/>
<use xlink:href="#t"  width="0.359" height="0.063" x="-0.18" y="-0.031" transform="matrix(1947.826 0 0 -1947.826 403.3792 -535.3027)" overflow="visible"/>
<use xlink:href="#s"  width="0.547" height="0.531" x="-0.273" y="-0.266" transform="matrix(1280 0 0 -1280 403.7424 -535.3027)" overflow="visible"/>
<use xlink:href="#a"  width="0.281" height="0.406" x="-0.141" y="-0.203" transform="matrix(1723.0769 0 0 -1723.0769 404.301 -535.3027)" overflow="visible"/>
<use xlink:href="#b"  width="0.313" height="0.516" x="-0.156" y="-0.258" transform="matrix(1357.5758 0 0 -1357.5758 404.6565 -535.3027)" overflow="visible"/>
<use xlink:href="#r"  width="0.297" height="0.547" x="-0.148" y="-0.273" transform="matrix(1280 0 0 -1280 395.0549 -536.0254)" overflow="visible"/>
<use xlink:href="#a"  width="0.281" height="0.406" x="-0.141" y="-0.203" transform="matrix(1723.0769 0 0 -1723.0769 395.3713 -536.0254)" overflow="visible"/>
<use xlink:href="#d"  width="0.438" height="0.422" x="-0.219" y="-0.211" transform="matrix(1600 0 0 -1600 395.7268 -536.0254)" overflow="visible"/>
<use xlink:href="#q"  width="0.641" height="0.406" x="-0.32" y="-0.203" transform="matrix(1092.683 0 0 -1092.683 396.2229 -536.0254)" overflow="visible"/>
<use xlink:href="#b"  width="0.313" height="0.516" x="-0.156" y="-0.258" transform="matrix(1357.5758 0 0 -1357.5758 397.2268 -536.0254)" overflow="visible"/>
<use xlink:href="#f"  width="0.406" height="0.547" x="-0.203" y="-0.273" transform="matrix(1280 0 0 -1280 397.5745 -536.0254)" overflow="visible"/>
<use xlink:href="#c"  width="0.422" height="0.422" x="-0.211" y="-0.211" transform="matrix(1659.2593 0 0 -1659.2593 398.0862 -536.0254)" overflow="visible"/>
<use xlink:href="#p"  width="0.484" height="0.531" x="-0.242" y="-0.266" transform="matrix(1317.6471 0 0 -1317.6471 398.8284 -536.0254)" overflow="visible"/>
<use xlink:href="#d"  width="0.438" height="0.422" x="-0.219" y="-0.211" transform="matrix(1600 0 0 -1600 399.4338 -536.0254)" overflow="visible"/>
<use xlink:href="#o"  width="0.391" height="0.406" x="-0.195" y="-0.203" transform="matrix(1723.0769 0 0 -1723.0769 399.9299 -536.0254)" overflow="visible"/>
<use xlink:href="#n"  width="0.406" height="0.406" x="-0.203" y="-0.203" transform="matrix(1723.0769 0 0 -1723.0769 400.4456 -536.0254)" overflow="visible"/>
<use xlink:href="#m"  width="0.438" height="0.531" x="-0.219" y="-0.266" transform="matrix(1317.6471 0 0 -1317.6471 401.2112 -536.0254)" overflow="visible"/>
<use xlink:href="#a"  width="0.281" height="0.406" x="-0.141" y="-0.203" transform="matrix(1723.0769 0 0 -1723.0769 401.7424 -536.0254)" overflow="visible"/>
<use xlink:href="#d"  width="0.438" height="0.422" x="-0.219" y="-0.211" transform="matrix(1600 0 0 -1600 402.0979 -536.0254)" overflow="visible"/>
<use xlink:href="#l"  width="0.203" height="0.703" x="-0.102" y="-0.352" transform="matrix(995.5555 0 0 -995.5555 402.594 -536.0254)" overflow="visible"/>
<use xlink:href="#c"  width="0.422" height="0.422" x="-0.211" y="-0.211" transform="matrix(1659.2593 0 0 -1659.2593 402.844 -536.0254)" overflow="visible"/>
<use xlink:href="#k"  width="0.359" height="0.422" x="-0.18" y="-0.211" transform="matrix(1659.2593 0 0 -1659.2593 403.3323 -536.0254)" overflow="visible"/>
<use xlink:href="#b"  width="0.313" height="0.516" x="-0.156" y="-0.258" transform="matrix(1357.5758 0 0 -1357.5758 403.762 -536.0254)" overflow="visible"/>
</svg>
