<?xml version="1.0" encoding="utf-8"?>
<!-- Generator: Adobe Illustrator 16.0.0, SVG Export Plug-In . SVG Version: 6.00 Build 0)  -->
<!DOCTYPE svg PUBLIC "-//W3C//DTD SVG 1.1//EN" "http://www.w3.org/Graphics/SVG/1.1/DTD/svg11.dtd">
<svg version="1.1" id="Layer_1" xmlns="http://www.w3.org/2000/svg" xmlns:xlink="http://www.w3.org/1999/xlink" x="0px" y="0px"
	 width="700px" height="700px" viewBox="0 0 700 700" enable-background="new 0 0 700 700" xml:space="preserve">
<symbol  id="a" viewBox="-0.141 -0.204 0.282 0.407">
	<path d="M0.141-0.078c0-0.008-0.008-0.016-0.016-0.016C0.113-0.102,0.102-0.109,0.094-0.109C0.051-0.109,0.02-0.094,0-0.063
		C-0.012-0.04-0.016-0.016-0.016,0.015v0.188h-0.125v-0.392h0.125v0.063c0.02-0.031,0.035-0.051,0.047-0.063
		c0.02-0.008,0.047-0.016,0.078-0.016h0.016h0.016V-0.078z"/>
</symbol>
<symbol  id="b" viewBox="-0.156 -0.258 0.312 0.516">
	<path d="M0.031-0.258v0.125h0.125v0.078H0.031v0.172v0.047h0.047h0.063v0.094H0.047c-0.055,0-0.094-0.008-0.125-0.031
		c-0.023-0.02-0.031-0.055-0.031-0.108v-0.172h-0.047v-0.078h0.047v-0.125L0.031-0.258L0.031-0.258z"/>
</symbol>
<symbol  id="c" viewBox="-0.211 -0.212 0.423 0.423">
	<path d="M0.211-0.008v0.047h-0.297c0.008,0.031,0.02,0.055,0.031,0.063c0.02,0.013,0.047,0.017,0.078,0.017
		c0.031,0,0.055-0.004,0.078-0.017c0.031-0.008,0.063-0.02,0.094-0.03V0.18c-0.031,0-0.063,0.009-0.094,0.017
		C0.079,0.203,0.056,0.211,0.023,0.211c-0.086,0-0.148-0.02-0.188-0.063c-0.031-0.039-0.047-0.087-0.047-0.142
		c0-0.07,0.016-0.125,0.047-0.156c0.039-0.039,0.098-0.063,0.172-0.063c0.063,0,0.109,0.022,0.141,0.063
		C0.188-0.117,0.211-0.07,0.211-0.008z M0.086-0.039c0-0.031-0.012-0.051-0.031-0.063C0.043-0.109,0.027-0.117,0.008-0.117
		c-0.023,0-0.043,0.008-0.063,0.017C-0.065-0.09-0.078-0.07-0.085-0.039H0.086z"/>
</symbol>
<symbol  id="d" viewBox="-0.219 -0.211 0.438 0.422">
	<path d="M0-0.117c-0.031,0-0.059,0.012-0.078,0.031C-0.09-0.074-0.094-0.043-0.094,0.008c0,0.031,0.004,0.06,0.016,0.078
		C-0.059,0.109-0.031,0.117,0,0.117s0.051-0.008,0.063-0.031c0.02-0.02,0.031-0.047,0.031-0.078c0-0.051-0.012-0.082-0.031-0.094
		C0.051-0.105,0.031-0.117,0-0.117z M0-0.211c0.063,0,0.113,0.022,0.156,0.063c0.039,0.031,0.063,0.087,0.063,0.156
		c0,0.056-0.023,0.103-0.063,0.142C0.113,0.191,0.063,0.211,0,0.211c-0.074,0-0.133-0.02-0.172-0.063
		c-0.031-0.039-0.047-0.087-0.047-0.142c0-0.07,0.016-0.125,0.047-0.156C-0.133-0.188-0.074-0.211,0-0.211z"/>
</symbol>
<symbol  id="e" viewBox="-0.195 -0.211 0.39 0.422">
	<path d="M0.008,0.008c-0.023,0-0.043,0.012-0.063,0.031C-0.066,0.051-0.07,0.063-0.07,0.07c0,0.012,0.004,0.022,0.016,0.03
		c0.008,0.013,0.023,0.017,0.047,0.017c0.031,0,0.051-0.004,0.063-0.017c0.02-0.02,0.031-0.039,0.031-0.063v-0.03H0.008z
		 M0.195-0.023v0.22H0.086V0.133C0.063,0.164,0.043,0.188,0.023,0.195C0,0.203-0.023,0.211-0.055,0.211
		c-0.043,0-0.078-0.012-0.109-0.031C-0.188,0.148-0.195,0.113-0.195,0.07c0-0.039,0.016-0.07,0.047-0.095
		c0.031-0.02,0.078-0.03,0.141-0.03h0.094V-0.07c0-0.02-0.012-0.03-0.031-0.03c-0.013-0.009-0.04-0.017-0.079-0.017h-0.078
		c-0.023,0-0.043,0.008-0.063,0.017v-0.095h0.078c0.031-0.008,0.055-0.016,0.078-0.016c0.082,0,0.133,0.016,0.156,0.047
		C0.18-0.133,0.195-0.086,0.195-0.023L0.195-0.023z"/>
</symbol>
<symbol  id="f" viewBox="-0.204 -0.273 0.407 0.548">
	<path d="M0.204,0.039v0.234h-0.14V0.086V0.023c0-0.009-0.008-0.021-0.016-0.031c0-0.008-0.008-0.017-0.016-0.017
		c0-0.007-0.011-0.015-0.031-0.015c-0.023,0-0.043,0.012-0.063,0.031c-0.012,0.022-0.016,0.055-0.016,0.094v0.188h-0.125v-0.548
		h0.125v0.203c0.02-0.02,0.039-0.035,0.063-0.047c0.02-0.008,0.039-0.016,0.063-0.016c0.051,0,0.086,0.016,0.109,0.047
		C0.188-0.055,0.204-0.012,0.204,0.039z"/>
</symbol>
<symbol  id="g" viewBox="-0.258 -0.281 0.516 0.563">
	<path d="M0.258,0.234C0.215,0.246,0.18,0.258,0.148,0.266C0.116,0.274,0.074,0.281,0.023,0.281c-0.086,0-0.152-0.023-0.203-0.078
		C-0.234,0.152-0.258,0.086-0.258,0c0-0.082,0.023-0.148,0.078-0.203c0.051-0.051,0.125-0.078,0.219-0.078
		c0.039,0,0.07,0.008,0.094,0.017c0.031,0.012,0.063,0.022,0.094,0.03v0.109c-0.031-0.02-0.063-0.031-0.094-0.031
		C0.109-0.164,0.086-0.172,0.055-0.172C0-0.172-0.039-0.156-0.07-0.125C-0.094-0.094-0.102-0.051-0.102,0
		c0,0.055,0.008,0.094,0.031,0.125C-0.039,0.156,0,0.172,0.055,0.172h0.031c0.008,0,0.02-0.004,0.031-0.016V0.063H0.039v-0.095
		h0.219V0.234z"/>
</symbol>
<symbol  id="h" viewBox="-0.227 -0.273 0.454 0.547">
	<path d="M-0.227-0.273h0.125l0.094,0.267l0.094-0.267h0.141L0.055,0.148C0.031,0.199,0.012,0.23-0.008,0.242
		c-0.023,0.02-0.055,0.031-0.094,0.031H-0.18V0.18h0.047h0.047c0.008,0,0.02-0.016,0.031-0.047L-0.227-0.273z"/>
</symbol>
<symbol  id="i" viewBox="-0.212 -0.282 0.424 0.563">
	<path d="M-0.008,0.188c0.031,0,0.051-0.009,0.063-0.031C0.063,0.137,0.07,0.109,0.07,0.078c0-0.039-0.008-0.07-0.016-0.094
		C0.042-0.036,0.023-0.047-0.009-0.047c-0.032,0-0.054,0.012-0.061,0.031c-0.012,0.022-0.016,0.055-0.016,0.094
		c0,0.031,0.004,0.059,0.016,0.078C-0.063,0.18-0.039,0.188-0.008,0.188z M-0.086-0.078c0.02-0.02,0.039-0.035,0.063-0.047
		c0.02-0.008,0.039-0.016,0.063-0.016c0.051,0,0.094,0.022,0.125,0.063c0.031,0.031,0.047,0.086,0.047,0.156
		c0,0.055-0.016,0.102-0.047,0.141C0.133,0.262,0.09,0.281,0.039,0.281c-0.023,0-0.043-0.008-0.063-0.017
		c-0.023-0.008-0.043-0.03-0.063-0.063v0.063h-0.125v-0.547h0.125L-0.086-0.078L-0.086-0.078z"/>
</symbol>
<symbol  id="j" viewBox="-0.211 -0.281 0.422 0.563">
	<path d="M0.086-0.078v-0.203h0.125v0.547H0.086V0.203C0.074,0.234,0.055,0.258,0.023,0.266C0,0.273-0.02,0.281-0.039,0.281
		c-0.055,0-0.094-0.021-0.125-0.063c-0.031-0.038-0.047-0.085-0.047-0.14c0-0.07,0.016-0.125,0.047-0.156
		c0.031-0.039,0.07-0.063,0.125-0.063c0.02,0,0.039,0.008,0.063,0.016C0.055-0.113,0.074-0.098,0.086-0.078z M0.008,0.188
		c0.02,0,0.035-0.009,0.047-0.031c0.02-0.021,0.031-0.047,0.031-0.078c0-0.039-0.012-0.07-0.031-0.094
		C0.043-0.035,0.028-0.046,0.008-0.046c-0.031,0-0.059,0.012-0.078,0.031C-0.082,0.008-0.086,0.04-0.086,0.079
		c0,0.031,0.004,0.059,0.016,0.078C-0.051,0.18-0.023,0.188,0.008,0.188z"/>
</symbol>
<symbol  id="k" viewBox="-0.181 -0.211 0.361 0.422">
	<path d="M0.18-0.195v0.109C0.147-0.094,0.125-0.102,0.117-0.102C0.104-0.109,0.085-0.117,0.055-0.117
		c-0.031,0-0.059,0.012-0.078,0.031c-0.023,0.022-0.031,0.055-0.031,0.094c0,0.031,0.008,0.06,0.031,0.078
		c0.02,0.023,0.047,0.031,0.078,0.031c0.031,0,0.051-0.004,0.063-0.017c0.02-0.008,0.039-0.016,0.063-0.016V0.18
		c-0.033,0.012-0.06,0.016-0.079,0.016C0.089,0.203,0.074,0.211,0.055,0.211c-0.086,0-0.148-0.02-0.188-0.063
		c-0.031-0.039-0.047-0.085-0.047-0.141c0-0.069,0.016-0.125,0.047-0.156c0.039-0.038,0.102-0.063,0.188-0.063
		c0.02,0,0.035,0.008,0.047,0.016H0.18z"/>
</symbol>
<symbol  id="l" viewBox="-0.102 -0.352 0.204 0.703">
	<path d="M-0.023-0.195h0.125V0.18c0,0.052-0.016,0.095-0.047,0.125c-0.024,0.031-0.059,0.047-0.11,0.047h-0.047V0.258h0.016
		c0.02,0,0.035-0.008,0.047-0.016c0.008,0,0.016-0.023,0.016-0.063V-0.195z M-0.023-0.352h0.125v0.094h-0.125V-0.352z"/>
</symbol>
<symbol  id="m" viewBox="-0.219 -0.266 0.438 0.531">
	<path d="M-0.219-0.266h0.234c0.063,0,0.109,0.016,0.141,0.047c0.039,0.03,0.063,0.078,0.063,0.141c0,0.055-0.023,0.094-0.063,0.125
		C0.125,0.07,0.078,0.078,0.016,0.078h-0.094v0.188h-0.141V-0.266z M-0.078-0.156v0.142H0c0.02,0,0.035-0.004,0.047-0.017
		c0.02-0.008,0.031-0.022,0.031-0.047c0-0.031-0.012-0.051-0.031-0.063C0.035-0.148,0.02-0.156,0-0.156H-0.078z"/>
</symbol>
<symbol  id="n" viewBox="-0.204 -0.203 0.407 0.407">
	<path d="M0.204-0.031v0.234h-0.14V0.016v-0.063c0-0.008-0.008-0.021-0.016-0.031c0-0.008-0.008-0.016-0.016-0.016
		c0-0.008-0.011-0.016-0.031-0.016c-0.023,0-0.043,0.013-0.063,0.031c-0.012,0.023-0.016,0.055-0.016,0.094v0.188h-0.125v-0.391
		h0.125v0.047c0.02-0.021,0.039-0.035,0.063-0.047c0.02-0.009,0.039-0.017,0.063-0.017c0.051,0,0.086,0.017,0.109,0.047
		C0.188-0.125,0.204-0.082,0.204-0.031z"/>
</symbol>
<symbol  id="o" viewBox="-0.195 -0.204 0.391 0.407">
	<path d="M-0.195,0.031v-0.234h0.125v0.031v0.094v0.047v0.078v0.031c0.008,0,0.016,0.008,0.016,0.016h0.047
		c0.02,0,0.035-0.004,0.047-0.016C0.06,0.058,0.07,0.027,0.07-0.016v-0.188h0.125v0.391H0.069V0.125
		C0.046,0.156,0.026,0.18,0.007,0.188C-0.017,0.195-0.04,0.203-0.07,0.203c-0.043,0-0.074-0.017-0.094-0.047
		C-0.188,0.125-0.195,0.086-0.195,0.031z"/>
</symbol>
<symbol  id="p" viewBox="-0.243 -0.266 0.485 0.53">
	<path d="M-0.243-0.266h0.156l0.188,0.358v-0.358h0.141v0.53H0.085l-0.203-0.358v0.358h-0.125V-0.266z"/>
</symbol>
<symbol  id="q" viewBox="-0.32 -0.203 0.64 0.407">
	<path d="M0.039-0.125c0.02-0.02,0.039-0.035,0.063-0.047c0.02-0.021,0.039-0.031,0.063-0.031c0.051,0,0.086,0.017,0.109,0.047
		C0.305-0.125,0.32-0.082,0.32-0.031v0.234H0.18V0v-0.016c0-0.031-0.008-0.052-0.016-0.063c0-0.02-0.012-0.031-0.031-0.031
		C0.11-0.11,0.09-0.098,0.07-0.079C0.059-0.055,0.055-0.023,0.055,0.016v0.188H-0.07V0c0-0.039-0.008-0.066-0.016-0.078
		c0-0.02-0.012-0.031-0.031-0.031c-0.031,0-0.055,0.013-0.063,0.031c-0.012,0.023-0.016,0.055-0.016,0.094v0.188H-0.32v-0.391h0.125
		v0.047l0.047-0.047c0.02-0.009,0.047-0.017,0.078-0.017c0.02,0,0.039,0.012,0.063,0.031C0.012-0.16,0.027-0.145,0.039-0.125z"/>
</symbol>
<symbol  id="r" viewBox="-0.148 -0.273 0.297 0.548">
	<path d="M0.148-0.273v0.078H0.086c-0.023,0-0.039,0.009-0.047,0.017v0.03v0.031h0.109v0.078H0.04v0.313h-0.125v-0.313h-0.063
		v-0.078h0.063v-0.031c0-0.038,0.008-0.069,0.031-0.094c0.02-0.02,0.055-0.031,0.11-0.031H0.148z"/>
</symbol>
<symbol  id="s" viewBox="-0.273 -0.266 0.547 0.53">
	<path d="M0.118,0.156h-0.219l-0.031,0.108h-0.141l0.203-0.53h0.156l0.188,0.53H0.148L0.118,0.156z M-0.069,0.078h0.14L0.008-0.141
		L-0.069,0.078z"/>
</symbol>
<symbol  id="t" viewBox="-0.18 -0.031 0.36 0.063">
	<path d="M0.18-0.031v0.063h-0.36v-0.063H0.18z"/>
</symbol>
<symbol  id="u" viewBox="-0.18 -0.211 0.36 0.422">
	<path d="M0.164-0.195v0.109C0.133-0.105,0.102-0.117,0.07-0.117H0.008h-0.063c-0.012,0-0.016,0.012-0.016,0.031
		c0,0.012,0.004,0.022,0.016,0.031h0.063h0.016c0.063,0.012,0.102,0.026,0.125,0.047C0.168,0.004,0.18,0.035,0.18,0.086
		c0,0.031-0.016,0.063-0.047,0.094C0.109,0.199,0.07,0.211,0.008,0.211c-0.031,0-0.063-0.008-0.094-0.016
		c-0.023,0-0.047-0.004-0.078-0.017V0.086c0.02,0.012,0.039,0.023,0.063,0.031h0.094H0.04c0.008-0.008,0.016-0.021,0.016-0.031
		c0-0.02-0.008-0.031-0.016-0.031c0,0-0.012-0.004-0.031-0.016h-0.031c-0.055-0.008-0.094-0.021-0.125-0.031
		C-0.172-0.012-0.18-0.043-0.18-0.086c0-0.039,0.016-0.07,0.047-0.094C-0.102-0.2-0.055-0.211,0.008-0.211
		c0.02,0,0.039,0.008,0.063,0.016H0.164z"/>
</symbol>
<symbol  id="v" viewBox="-0.219 -0.196 0.438 0.392">
	<path d="M-0.078-0.008l-0.141-0.188h0.125L0-0.086l0.078-0.109h0.141L0.078-0.008l0.141,0.203H0.078L0,0.07l-0.094,0.125h-0.125
		L-0.078-0.008z"/>
</symbol>
<symbol  id="w" viewBox="-0.063 -0.273 0.125 0.548">
	<path d="M-0.063-0.117h0.125v0.392h-0.125V-0.117z M-0.063-0.273h0.125v0.095h-0.125V-0.273z"/>
</symbol>
<symbol  id="x" viewBox="-0.211 -0.274 0.422 0.548">
	<path d="M-0.086,0.07v0.203h-0.125v-0.531h0.125v0.047c0.02-0.021,0.039-0.035,0.063-0.047c0.02-0.008,0.039-0.017,0.063-0.017
		c0.051,0,0.094,0.023,0.125,0.063c0.03,0.031,0.046,0.086,0.046,0.156c0,0.055-0.016,0.102-0.047,0.141
		C0.133,0.129,0.09,0.148,0.039,0.148c-0.023,0-0.043-0.009-0.063-0.017C-0.047,0.125-0.066,0.102-0.086,0.07z M-0.008-0.18
		c-0.031,0-0.055,0.012-0.063,0.03c-0.012,0.023-0.016,0.056-0.016,0.095c0,0.03,0.004,0.059,0.016,0.078
		c0.008,0.022,0.031,0.03,0.063,0.03c0.032,0,0.051-0.008,0.063-0.03C0.063,0.004,0.07-0.023,0.07-0.055
		c0-0.039-0.008-0.07-0.016-0.095C0.043-0.168,0.023-0.18-0.008-0.18z"/>
</symbol>
<path fill="#038C7F" d="M431.46,301.54H208.5c-45.125,0-81.652-36.508-81.652-81.652c0-43.738,34.281-79.293,77.297-81.535
	c2.98-57.07,62.117-92.973,113.84-70.648c19,8.199,34.066,23.223,42.354,41.93c26.141-5.652,52.861,5.93,66.629,28.73
	c52.457-2.864,94.129,43.812,84.875,95.949c-6.84,38.34-40.342,67.227-80.379,67.227L431.46,301.54z M221.529,142.579l0.129,4.281
	 M346.713,122.97 M431.459,284.032"/>
<path fill="#038C7F" d="M334.02,421.09c-18.982,0-34.439-15.439-34.439-34.439c0-4.859,1.461-13.725,14.125-34.484
	c6.534-10.73,12.982-19.547,13.258-19.91c3.483-4.758,10.613-4.785,14.113,0c0.272,0.375,6.723,9.18,13.258,19.91
	c12.65,20.762,14.125,29.625,14.125,34.484C368.447,405.637,353.005,421.09,334.02,421.09z M339.426,361.379
	c-1.836-3.055-3.699-5.977-5.406-8.547 M334.004,403.582 M328.582,361.379"/>
<path fill="#038C7F" d="M453.05,421.09c-18.984,0-34.441-15.439-34.441-34.439c0-4.859,1.461-13.725,14.125-34.484
	c6.535-10.73,12.984-19.547,13.258-19.91c3.484-4.758,10.613-4.785,14.113,0c0.273,0.375,6.723,9.18,13.258,19.91
	c12.652,20.762,14.125,29.625,14.125,34.484C487.49,405.637,472.033,421.09,453.05,421.09z M458.455,361.379
	c-1.836-3.055-3.698-5.977-5.405-8.547 M453.033,403.582 M447.612,361.379"/>
<path fill="#038C7F" d="M216.24,421.09c-18.984,0-34.441-15.439-34.441-34.439c0-4.859,1.461-13.725,14.125-34.484
	c6.535-10.73,12.984-19.547,13.258-19.91c3.484-4.758,10.613-4.785,14.113,0c0.272,0.375,6.723,9.18,13.258,19.91
	c12.652,20.762,14.125,29.625,14.125,34.484C250.67,405.637,235.225,421.09,216.24,421.09z M216.24,352.832
	c-1.707,2.59-3.57,5.496-5.438,8.547 M221.646,361.379 M216.224,403.582"/>
<path fill="#038C7F" d="M394.97,534.84c-18.984,0-34.441-15.439-34.441-34.439c0-4.859,1.461-13.725,14.125-34.484
	c6.535-10.73,12.984-19.547,13.26-19.91c3.483-4.758,10.611-4.785,14.111,0c0.273,0.375,6.723,9.18,13.258,19.91
	c12.652,20.762,14.125,29.625,14.125,34.484C429.41,519.399,413.953,534.84,394.97,534.84z M400.376,475.125
	c-1.837-3.051-3.699-5.957-5.406-8.547 M394.954,517.328 M389.532,475.125"/>
<path fill="#038C7F" d="M274.32,534.84c-18.982,0-34.439-15.439-34.439-34.439c0-4.859,1.461-13.725,14.125-34.484
	c6.535-10.73,12.982-19.547,13.258-19.91c3.484-4.758,10.613-4.785,14.113,0c0.272,0.375,6.723,9.18,13.258,19.91
	c12.652,20.762,14.125,29.625,14.125,34.484C308.75,519.399,293.305,534.84,274.32,534.84z M279.727,475.125
	c-1.832-3.051-3.699-5.957-5.407-8.547 M274.305,517.328 M268.882,475.125"/>
<use xlink:href="#a"  width="0.282" height="0.407" x="-0.141" y="-0.204" transform="matrix(1715.5883 0 0 -1715.5883 394.7249 -534.4648)" overflow="visible"/>
<use xlink:href="#c"  width="0.423" height="0.423" x="-0.211" y="-0.212" transform="matrix(1655.9177 0 0 -1655.9177 395.9417 -534.4941)" overflow="visible"/>
<use xlink:href="#e"  width="0.39" height="0.422" x="-0.195" y="-0.211" transform="matrix(1659.7509 0 0 -1659.7509 397.2629 -535.3027)" overflow="visible"/>
<use xlink:href="#b"  width="0.312" height="0.516" x="-0.156" y="-0.258" transform="matrix(1358.563 0 0 -1358.563 397.6008 -535.3027)" overflow="visible"/>
<use xlink:href="#c"  width="0.423" height="0.423" x="-0.211" y="-0.212" transform="matrix(1655.9177 0 0 -1655.9177 397.2659 -534.4941)" overflow="visible" enable-background="new    "/>
<use xlink:href="#j"  width="0.422" height="0.563" x="-0.211" y="-0.281" transform="matrix(1244.8131 0 0 -1244.8131 397.7581 -535.9248)" overflow="visible"/>
<use xlink:href="#i"  width="0.424" height="0.563" x="-0.212" y="-0.282" transform="matrix(1239.0767 0 0 -1239.0767 398.5237 -535.3198)" overflow="visible"/>
<use xlink:href="#h"  width="0.454" height="0.547" x="-0.227" y="-0.273" transform="matrix(1276.895 0 0 -1276.895 398.4026 -535.9429)" overflow="visible"/>
<use xlink:href="#g"  width="0.516" height="0.563" x="-0.258" y="-0.281" transform="matrix(1245.3494 0 0 -1245.3494 399.7659 -535.9248)" overflow="visible"/>
<use xlink:href="#a"  width="0.282" height="0.407" x="-0.141" y="-0.204" transform="matrix(1715.5883 0 0 -1715.5883 399.4983 -534.4648)" overflow="visible" enable-background="new    "/>
<use xlink:href="#e"  width="0.39" height="0.422" x="-0.195" y="-0.211" transform="matrix(1659.7509 0 0 -1659.7509 401.5442 -535.3027)" overflow="visible" enable-background="new    "/>
<use xlink:href="#x"  width="0.422" height="0.548" x="-0.211" y="-0.274" transform="matrix(1278.0104 0 0 -1278.0104 401.2034 -535.3188)" overflow="visible"/>
<use xlink:href="#f"  width="0.407" height="0.548" x="-0.204" y="-0.273" transform="matrix(1276.1447 0 0 -1276.1447 401.7229 -536.5659)" overflow="visible"/>
<use xlink:href="#w"  width="0.125" height="0.548" x="-0.063" y="-0.273" transform="matrix(1278.0104 0 0 -1278.0104 401.594 -536.5669)" overflow="visible"/>
<use xlink:href="#v"  width="0.438" height="0.392" x="-0.219" y="-0.196" transform="matrix(1597.5422 0 0 -1597.5422 402.4846 -535.3228)" overflow="visible"/>
<use xlink:href="#u"  width="0.36" height="0.422" x="-0.18" y="-0.211" transform="matrix(1653.0359 0 0 -1653.0359 402.1194 -535.3027)" overflow="visible"/>
<use xlink:href="#t"  width="0.36" height="0.063" x="-0.18" y="-0.031" transform="matrix(1933.2024 0 0 -1933.2024 402.4045 -537.2207)" overflow="visible"/>
<use xlink:href="#s"  width="0.547" height="0.53" x="-0.273" y="-0.266" transform="matrix(1280.2925 0 0 -1280.2925 404.3821 -534.0376)" overflow="visible"/>
<use xlink:href="#a"  width="0.282" height="0.407" x="-0.141" y="-0.204" transform="matrix(1715.5883 0 0 -1715.5883 403.4397 -534.4648)" overflow="visible" enable-background="new    "/>
<use xlink:href="#b"  width="0.312" height="0.516" x="-0.156" y="-0.258" transform="matrix(1358.563 0 0 -1358.563 405.3352 -535.3027)" overflow="visible" enable-background="new    "/>
<use xlink:href="#r"  width="0.297" height="0.548" x="-0.148" y="-0.273" transform="matrix(1278.0104 0 0 -1278.0104 395.6946 -537.2896)" overflow="visible"/>
<use xlink:href="#a"  width="0.282" height="0.407" x="-0.141" y="-0.204" transform="matrix(1715.5883 0 0 -1715.5883 394.51 -535.1875)" overflow="visible" enable-background="new    "/>
<use xlink:href="#d"  width="0.438" height="0.422" x="-0.219" y="-0.211" transform="matrix(1598.261 0 0 -1598.261 395.7268 -536.0254)" overflow="visible"/>
<use xlink:href="#q"  width="0.64" height="0.407" x="-0.32" y="-0.203" transform="matrix(1089.3918 0 0 -1089.3918 396.7688 -536.5571)" overflow="visible"/>
<use xlink:href="#b"  width="0.312" height="0.516" x="-0.156" y="-0.258" transform="matrix(1358.563 0 0 -1358.563 397.9055 -536.0254)" overflow="visible" enable-background="new    "/>
<use xlink:href="#f"  width="0.407" height="0.548" x="-0.204" y="-0.273" transform="matrix(1276.1447 0 0 -1276.1447 397.5745 -537.2886)" overflow="visible" enable-background="new    "/>
<use xlink:href="#c"  width="0.423" height="0.423" x="-0.211" y="-0.212" transform="matrix(1655.9177 0 0 -1655.9177 398.0862 -535.2168)" overflow="visible" enable-background="new    "/>
<use xlink:href="#p"  width="0.485" height="0.53" x="-0.243" y="-0.266" transform="matrix(1313.9778 0 0 -1313.9778 398.8284 -534.7251)" overflow="visible"/>
<use xlink:href="#d"  width="0.438" height="0.422" x="-0.219" y="-0.211" transform="matrix(1598.261 0 0 -1598.261 399.4338 -536.0254)" overflow="visible" enable-background="new    "/>
<use xlink:href="#o"  width="0.391" height="0.407" x="-0.195" y="-0.204" transform="matrix(1717.887 0 0 -1717.887 400.7913 -535.1865)" overflow="visible"/>
<use xlink:href="#n"  width="0.407" height="0.407" x="-0.204" y="-0.203" transform="matrix(1717.887 0 0 -1717.887 400.4456 -536.8643)" overflow="visible"/>
<use xlink:href="#m"  width="0.438" height="0.531" x="-0.219" y="-0.266" transform="matrix(1316.215 0 0 -1316.215 401.2112 -535.3667)" overflow="visible"/>
<use xlink:href="#a"  width="0.282" height="0.407" x="-0.141" y="-0.204" transform="matrix(1715.5883 0 0 -1715.5883 400.8811 -535.1875)" overflow="visible" enable-background="new    "/>
<use xlink:href="#d"  width="0.438" height="0.422" x="-0.219" y="-0.211" transform="matrix(1598.261 0 0 -1598.261 402.0979 -536.0254)" overflow="visible" enable-background="new    "/>
<use xlink:href="#l"  width="0.204" height="0.703" x="-0.102" y="-0.352" transform="matrix(990.1823 0 0 -990.1823 402.0959 -535.5278)" overflow="visible"/>
<use xlink:href="#c"  width="0.423" height="0.423" x="-0.211" y="-0.212" transform="matrix(1655.9177 0 0 -1655.9177 402.844 -535.2168)" overflow="visible" enable-background="new    "/>
<use xlink:href="#k"  width="0.361" height="0.422" x="-0.181" y="-0.211" transform="matrix(1648.5682 0 0 -1648.5682 402.5022 -536.0254)" overflow="visible"/>
<use xlink:href="#b"  width="0.312" height="0.516" x="-0.156" y="-0.258" transform="matrix(1358.563 0 0 -1358.563 404.4407 -536.0254)" overflow="visible" enable-background="new    "/>
</svg>
