<?xml version="1.0" encoding="utf-8"?>
<!-- Generator: Adobe Illustrator 16.0.0, SVG Export Plug-In . SVG Version: 6.00 Build 0)  -->
<!DOCTYPE svg PUBLIC "-//W3C//DTD SVG 1.1//EN" "http://www.w3.org/Graphics/SVG/1.1/DTD/svg11.dtd">
<svg version="1.1" id="Layer_1" xmlns="http://www.w3.org/2000/svg" xmlns:xlink="http://www.w3.org/1999/xlink" x="0px" y="0px"
	 width="700px" height="700px" viewBox="0 0 700 700" enable-background="new 0 0 700 700" xml:space="preserve">
<g>
	<path fill="#038C7F" d="M455,280c0,57.988-47.013,105-105,105c-57.988,0-105-47.012-105-105c0-57.988,47.012-105,105-105
		C407.988,175,455,222.012,455,280"/>
	<path fill="#038C7F" d="M350,110.14c9.664,0,17.5-7.836,17.5-17.5V52.503c0-9.664-7.836-17.5-17.5-17.5s-17.5,7.836-17.5,17.5
		V92.64C332.5,102.304,340.336,110.14,350,110.14z"/>
	<path fill="#038C7F" d="M350,449.86c-9.664,0-17.5,7.836-17.5,17.5v40.137c0,9.664,7.836,17.5,17.5,17.5s17.5-7.836,17.5-17.5
		V467.36C367.5,457.696,359.664,449.86,350,449.86L350,449.86z"/>
	<path fill="#038C7F" d="M577.5,262.5h-40.138c-9.664,0-17.5,7.836-17.5,17.5s7.836,17.5,17.5,17.5H577.5
		c9.664,0,17.5-7.836,17.5-17.5S587.164,262.5,577.5,262.5z"/>
	<path fill="#038C7F" d="M180.14,280c0-9.664-7.836-17.5-17.5-17.5h-40.137c-9.664,0-17.5,7.836-17.5,17.5s7.836,17.5,17.5,17.5
		h40.137C172.304,297.5,180.14,289.664,180.14,280z"/>
	<path fill="#038C7F" d="M494.86,400.12c-6.836-6.836-17.91-6.836-24.746,0s-6.836,17.91,0,24.746l28.379,28.379
		c3.418,3.418,7.895,5.129,12.371,5.129s8.957-1.707,12.371-5.129c6.836-6.836,6.836-17.91,0-24.746L494.86,400.12z"/>
	<path fill="#038C7F" d="M201.51,106.76c-6.836-6.835-17.91-6.835-24.746,0c-6.836,6.836-6.836,17.91,0,24.746l28.379,28.379
		c3.414,3.415,7.895,5.125,12.371,5.125s8.953-1.71,12.371-5.129c6.836-6.835,6.836-17.91,0-24.746L201.51,106.76z"/>
	<path fill="#038C7F" d="M205.14,400.12l-28.379,28.379c-6.836,6.836-6.836,17.91,0,24.746c3.418,3.418,7.895,5.129,12.371,5.129
		s8.957-1.707,12.371-5.129l28.379-28.379c6.836-6.836,6.836-17.91,0-24.746C223.05,393.284,211.976,393.284,205.14,400.12z"/>
	<path fill="#038C7F" d="M482.49,165.01c4.477,0,8.957-1.707,12.371-5.129l28.379-28.379c6.836-6.836,6.836-17.91,0-24.746
		c-6.836-6.835-17.91-6.835-24.746,0l-28.379,28.379c-6.836,6.836-6.836,17.91,0,24.746
		C473.536,163.299,478.013,165.01,482.49,165.01z"/>
</g>
</svg>
